/* XPM */
static char *_e7b6b784fcc44bfef310275e463eff1bRvxZXwNifY7miTR[] = {
/* columns rows colors chars-per-pixel */
"64 64 22 1 ",
"  c None",
". c #000008",
"X c gray12",
"o c #0B1B33",
"O c #2F002F",
"+ c gray20",
"@ c #530000",
"# c #132B4B",
"$ c #1B3767",
"% c #47074B",
"& c #570B57",
"* c #6F1F73",
"= c #535353",
"- c #777777",
"; c #B30000",
": c #FF2323",
"> c #2B5397",
", c #335FB3",
"< c #4377E7",
"1 c #8B378F",
"2 c #B367B7",
"3 c #FF9797",
/* pixels */
"                                                                ",
"                                                                ",
"                                                                ",
"                                                                ",
"                                                                ",
"                          OOOOO  OOOOO                          ",
"                         OO%%%%OO%%%%OO                         ",
"                    OO%OOO%&&&&&&&&&&%OOO%OO                    ",
"                   O%%%%OO%&***&&***&%OO%%%%O                   ",
"                  O%%&&&&O%&***&&***&%O&&&&%%O                  ",
"              OOOOO%%&&**O%*1******1*%O**&&%%O                  ",
"            OO%%%%O%&&***%%*11*&&*11*%%***&&%O%%%%%O            ",
"           O%%&&&&O%&**1*%%%*1*&&*1*%%%*1**&%O&&&&&%O           ",
"          O%&&&&&&O%&*11*&%%*11**11*%%&*11*&%O&&&&&&%O          ",
"         O%&&&&*O%%%%*111*&%%11**11%%&*111*%%%%O*&&&&%O         ",
"        O%%&&***O%&%%&1121*&&11**11&&*1211&%%&%O***&&%%O        ",
"        O%%&&***%&**%%*111****1111****111*%%**&%***&&%%O        ",
"       OO%%&*11*O%****%&******1111******&%****%O*11*&%%OO       ",
"     OO%%O%&11***O%*11&.%%%%%**11**%%%%%O&11*%O***11&%O%%OO     ",
"    O%%%&O%&*11***O%**.%%&**&%%**%%&**&%%O**%O***11*&%O&%%%O    ",
"   O%&&&*&O%**111****..O&****&%%%%&****&%O&****111**%O&*&&&%O   ",
"   O%&***%&****1221**..O&*11**&%%&**11*&%%.**1221****&%***&%O   ",
"   O%*1******%%*11**O..O*1121**&&**1211*&.OO**11*%%******1*%O   ",
"   O%**1**%**O%&**&OO..O**1***&&&&***1***%.OO***&%O**%**1**%O   ",
"   O%**111%*&&OOO%%OO+OO****%%OOOO%%****&..O%%%OOO&&*%111**%O   ",
"    O%%*12O%%&OO%%O..=.O******%%%%******%..O%&%%OO&%%O21*%%O    ",
"   %%O%%**&OOO%%OOO+==..&**11**%%**11**&++O%%**&%%OOO&**%%O%%   ",
"  %&&&*&%*&OO%%O...+=+..%&**1******1**&%=.O%*****%%OO&*%&*&&&%  ",
" %&&*****%%O%&%%O...++..%%**1*****11**%.=.OO%**1**&%O%%*****&&% ",
" %&***%**&&%%*%%OOO..++.O%**1*****11*%%+...OO%*1***%%&&**%***&% ",
" %&*1*%%&&O%&*1%%OOO++X.OO%*********%%.=++..OO**11*&%O&&%%*1*&% ",
" %&*11**%%O%**21%%OO+++...%&*******%%..==.....**12**%O%%**11*&% ",
" O%**11**%O%*11**%%O..XX...%&****%%%..+=..OOO%O**11*%O%**11**%O ",
"  O%*1121*O%*1**O%%O..XX....%%%%%....XX=.OOO%%%O**1*%O*1211*%O  ",
"  OO%**11*O%****%%%O..XXXXX.......XXXX+=.OO%&&%%****%O*11**%OO  ",
"   OO%****OO&***%%%%..XXXXXXXXXXXXXXXXX+.OO%*&%%***&OO****%OO   ",
"  ooO%%%%%%O%&**O%%%..XXXXXXX+++++XXXXX+..O%*%%O**&%O%%%%%%Ooo  ",
"  oooOOOOO%OO%&&O%%...XXX++++=====++XXXX+.O%&%%O&&%OO%OOOOOooo  ",
"  ooooooooooOOO&&O%..XXX++==-------==+XX+..O%%O&&OOOoooooooooo  ",
"   ooooo###oooOOOO..+XXXXX++=======+++XXX+..OOOOOOooo###ooooo   ",
"    oooooo######...+XXXXXXXX++++++++XXXXX.....o#######oooooo    ",
"    ooooo####.....==+XXXXX............XXX...$$$$#######ooooo    ",
"     oooo###....++=.+XXX..@@;;:33:;;@@..XXX..>>$$$$####oooooo   ",
"     ooooo##....+.....XX..@@;;:33:;;@@..XXX...>>>>$$##ooooooo   ",
"     oooooo.......>,>>..XX............X.XXXX..>>>>$$#oooo ooo   ",
"     oooooo....$>><,,>..XXXX++++++++XXX.XX.....>$$$##oooo  ooo  ",
"      ooooo....$><<<,,,.XXX+==----==+XX.........$$$$ooooo  oo   ",
"      ooooooo...$>><<<<,..XX++++++++XXX..<<.......$oooooo  oo   ",
"      oooooooo..$$$<<<<,..XXXXXXXXXXXXX.,<<<<....oooooooo       ",
"     ooo   oooooo$$$><,,..XXX+=--=++X..>,,<>$..ooooooooo        ",
"     ooo   ooooo $$>><,>>.XXXXX..XXXX..>>,<>>$.o   ooooo        ",
"     oo    oooo   $>><,>>..XXXXX.XXXX.$>>,<>>$     ooo          ",
"           ooo    $><,,>>$.XXX....XXX.$>>,,<>$     ooo          ",
"            ooo   $><,>$$..XX......XX.$$$>,<>$     ooo          ",
"            ooo   $><,>$$.....    ...  $$>,<>$      oo          ",
"            oo    $><,>$  ....   ....   $>,<>$       oo         ",
"                   >>>$     ...  ...     $>>>        oo         ",
"                    >,$$    ...  ..     $$,>         oo         ",
"                    $>,$$  ...    ..   $$,>$                    ",
"                $$   $<>$ ....    ...  $><$   $$                ",
"               $>>>$$>,>$  ..          $>,>$$>>>$               ",
"               $>,>>>,,$                $,,>>>,>$               ",
"                $>,,,>$$                $$>,,,>$                ",
"                  $$$$$                  $$$$$                  "
};
