/* XPM */
static char *_e184a67869a4c5caf2f9e0d95de6a607sR7TqOXIDvLfVmL[] = {
/* columns rows colors chars-per-pixel */
"32 32 163 2 ",
"   c None",
".  c #0C2D00",
"X  c #122600",
"o  c #122F00",
"O  c #1A2F00",
"+  c #1B3301",
"@  c #243D01",
"#  c #283D04",
"$  c #244101",
"%  c #2A4303",
"&  c #2F4904",
"*  c #344D04",
"=  c #334E08",
"-  c #3B5402",
";  c #3E5A0D",
":  c #3B530A",
">  c #374D12",
",  c #425C05",
"<  c #435B0E",
"1  c #405512",
"2  c #455D13",
"3  c #486B02",
"4  c #44630D",
"5  c #446406",
"6  c #55750E",
"7  c #466412",
"8  c #4F6617",
"9  c #4C6A15",
"0  c #4E621A",
"q  c #51661B",
"w  c #556C1B",
"e  c #5F7617",
"r  c #577B16",
"t  c #5E7B14",
"y  c #54771C",
"u  c #5A7C1B",
"i  c #676507",
"p  c #607A0E",
"a  c #606D1C",
"s  c #63701E",
"d  c #627C1B",
"f  c #6D7B1E",
"g  c #586C24",
"h  c #5F7222",
"j  c #676227",
"k  c #626A23",
"l  c #617622",
"z  c #657C24",
"x  c #687823",
"c  c #667B29",
"v  c #6C7F29",
"b  c #727D26",
"n  c #737F2A",
"m  c #5E8410",
"M  c #5C8219",
"N  c #618518",
"B  c #65881C",
"V  c #648416",
"C  c #739418",
"Z  c #638520",
"A  c #6F852C",
"S  c #748225",
"D  c #7D8627",
"F  c #73842C",
"G  c #75892D",
"H  c #7C8A2D",
"J  c #7A852C",
"K  c #6D9021",
"L  c #789120",
"P  c #7D902D",
"I  c #749A22",
"U  c #708532",
"Y  c #7D8730",
"T  c #7C8E31",
"R  c #7E9032",
"E  c #77A120",
"W  c #838615",
"Q  c #859E1E",
"!  c #809824",
"~  c #87972F",
"^  c #869F2D",
"/  c #838C31",
"(  c #898F34",
")  c #849433",
"_  c #8A9333",
"`  c #879831",
"'  c #8E9A33",
"]  c #83973B",
"[  c #879A38",
"{  c #8C9E38",
"}  c #979436",
"|  c #919A34",
" . c #939C39",
".. c #84A024",
"X. c #88A127",
"o. c #88B02C",
"O. c #8EBA28",
"+. c #95B826",
"@. c #91B62A",
"#. c #9EB62E",
"$. c #96A336",
"%. c #9EAC36",
"&. c #97A43D",
"*. c #9BA23B",
"=. c #9EA93C",
"-. c #AEA125",
";. c #A2BD2B",
":. c #B9B22D",
">. c #A4AB3C",
",. c #A3B33F",
"<. c #AAB33E",
"1. c #A5C22B",
"2. c #A8C337",
"3. c #B5CF38",
"4. c #B9CC3A",
"5. c #A8D135",
"6. c #AAD038",
"7. c #B6D239",
"8. c #C1C428",
"9. c #D5CF2C",
"0. c #C7D433",
"q. c #CED631",
"w. c #ECDE3D",
"e. c #C2E136",
"r. c #ECF737",
"t. c #F9F73D",
"y. c #A5AD42",
"u. c #A4B644",
"i. c #ACB343",
"p. c #AAB842",
"a. c #B3BA45",
"s. c #B2BE49",
"d. c #BBC146",
"f. c #B7C14B",
"g. c #BAC048",
"h. c #C1C54F",
"j. c #C4CA4D",
"k. c #C5DE4E",
"l. c #C0E044",
"z. c #C5E049",
"x. c #DCE949",
"c. c #D2EC4A",
"v. c #DAF34F",
"b. c #D6EE52",
"n. c #E2EC41",
"m. c #F1EA44",
"M. c #F3E74D",
"N. c #ECF745",
"B. c #E9F14C",
"V. c #FAF348",
"C. c #EEF957",
"Z. c #EDFD5F",
"A. c #F5F451",
"S. c #F6FA57",
"D. c #F8F955",
"F. c #ECFA64",
"G. c #E8FA6B",
"H. c #FFFB67",
"J. c #FBFA6B",
"K. c #FBF56B",
"L. c #F0EF70",
"P. c #FBFE73",
"I. c #FDFC7C",
/* pixels */
"                                                                ",
"                                                                ",
"                                                                ",
"                                                                ",
"                          *.&.*.*.(                             ",
"                    =.i.h.y.| >.>.*. .Y                         ",
"                  *.<.i.y._ | d.y. ._ F H /                     ",
"                  *.|  ./ | j.j.>. ./ F  .i. .J                 ",
"                *.a.a._ b >.d.<./  .' S R s.>.'                 ",
"              *.d.a.<._ D | i.&.)  .T 2 ) ,.%.` F               ",
"              >.i.| s a f S &.T R F 0 2 [ &.R F h               ",
"              | ' a k i.a.>.v c w = O X 0 G A <                 ",
"              ` F n a.h.g.>.J ] c * # # + 7 8                   ",
"             .a.y.' <.i.=.F F A g , * - 9 u                     ",
"            $.f.p.) ~ H n ) U 2 o , - 5 M                       ",
"            =.u.{ G F l G l ; 4 6 - * 6 E                       ",
"            ` P T c x G F # , V t - , C @.                      ",
"            z z c > % q : < < , p d 9 ..;.                      ",
"              d 1 + $ $ 3 m N d e ! ^ X.3.#.                    ",
"              w 2 @ 4 ; = @ . % L Q ;.2.k.b.4.                  ",
"                < &   y u Z B r C 1.7.z.b.G.Z.0.                ",
"                            Z K O.6.l.c.F.C.N.r.q.              ",
"                                u I 5.v.F.S.D.A.t.9.            ",
"                                    o.e.B.P.J.K.m.w.            ",
"                                      +.x.J.I.I.M.-.            ",
"                                        n.V.H.L.}               ",
"                                        8.m.:.i                 ",
"                                          W j                   ",
"                                                                ",
"                                                                ",
"                                                                ",
"                                                                "
};
