/* XPM */
static char *_700554786844[] = {
/* columns rows colors chars-per-pixel */
"42 64 205 2 ",
"   c #020101",
".  c #0F0001",
"X  c #060802",
"o  c #0D0C05",
"O  c #00060D",
"+  c #0D0D08",
"@  c #130000",
"#  c #120D04",
"$  c #110F09",
"%  c #1E0F0A",
"&  c #0F1107",
"*  c #00120D",
"=  c #0F110B",
"-  c #141206",
";  c #1A1505",
":  c #1C1806",
">  c #15130A",
",  c #1A160C",
"<  c #16190E",
"1  c #1C1A0D",
"2  c #001214",
"3  c #0E1111",
"4  c #151211",
"5  c #1C1612",
"6  c #171910",
"7  c #1C1B12",
"8  c #1D1A18",
"9  c #2C0000",
"0  c #250800",
"q  c #2B0D02",
"w  c #221300",
"e  c #291600",
"r  c #23170D",
"t  c #221D0C",
"y  c #241A06",
"u  c #221714",
"i  c #221D13",
"p  c #2A1C10",
"a  c #231E18",
"s  c #2A1C18",
"d  c #1F2016",
"f  c #2D280E",
"g  c #2A230F",
"h  c #31230D",
"j  c #242215",
"k  c #2A2415",
"l  c #2C2915",
"z  c #24231A",
"x  c #2B251B",
"c  c #25281F",
"v  c #2C2A1C",
"b  c #342516",
"n  c #332A15",
"m  c #392C15",
"M  c #32251C",
"N  c #332C1C",
"B  c #3B2C1C",
"V  c #3A271D",
"C  c #35311D",
"Z  c #3A331E",
"A  c #272320",
"S  c #2D2722",
"D  c #2E2C21",
"F  c #2B2E28",
"G  c #332C22",
"H  c #3A2B22",
"J  c #362F29",
"K  c #2F3328",
"L  c #343224",
"P  c #3A3423",
"I  c #3E3A25",
"U  c #353329",
"Y  c #3A362B",
"T  c #3C392C",
"R  c #363330",
"E  c #3C3531",
"W  c #3E3B34",
"Q  c #5D2907",
"!  c #5C3500",
"~  c #422D10",
"^  c #47381D",
"/  c #40351D",
"(  c #583715",
")  c #5C2D25",
"_  c #423624",
"`  c #433A25",
"'  c #4B3B25",
"]  c #443C2C",
"[  c #4C3D2B",
"{  c #573E27",
"}  c #533D2A",
"|  c #423B34",
" . c #453D3A",
".. c #453A33",
"X. c #6B3632",
"o. c #4C432D",
"O. c #4D4024",
"+. c #53432B",
"@. c #5B442D",
"#. c #5E4227",
"$. c #454235",
"%. c #4A4332",
"&. c #45423A",
"*. c #4A463B",
"=. c #4F483D",
"-. c #4F4A36",
";. c #534533",
":. c #554A33",
">. c #5B4B35",
",. c #554B3A",
"<. c #594F3C",
"1. c #53503F",
"2. c #5D513C",
"3. c #595136",
"4. c #6F4231",
"5. c #644A34",
"6. c #664F3D",
"7. c #65533C",
"8. c #69553C",
"9. c #6A5A3F",
"0. c #685539",
"q. c #7E5836",
"w. c #7F633F",
"e. c #564F42",
"r. c #565142",
"t. c #5B5343",
"y. c #5D5C4E",
"u. c #635541",
"i. c #655A44",
"p. c #6C5C43",
"a. c #615548",
"s. c #655D4A",
"d. c #685D4C",
"f. c #765F42",
"g. c #715F4B",
"h. c #6B614B",
"j. c #7C6245",
"k. c #73644D",
"l. c #79674F",
"z. c #7C6A4F",
"x. c #6C6350",
"c. c #656058",
"v. c #686557",
"b. c #726652",
"n. c #7B6D53",
"m. c #746B59",
"M. c #796E57",
"N. c #78715E",
"B. c #747067",
"V. c #7C756D",
"C. c #855F40",
"Z. c #8B5049",
"A. c #846948",
"S. c #9E754F",
"D. c #9C7C4D",
"F. c #9A7146",
"G. c #806E53",
"H. c #816859",
"J. c #8A6B55",
"K. c #986656",
"L. c #986852",
"P. c #847456",
"I. c #8C7554",
"U. c #83745B",
"Y. c #897558",
"T. c #8D7B5D",
"R. c #86785B",
"E. c #957C53",
"W. c #9C7D52",
"Q. c #967C5A",
"!. c #817562",
"~. c #8C7D62",
"^. c #847A6A",
"/. c #937E62",
"(. c #907263",
"). c #9C7D73",
"_. c #A47361",
"`. c #A1845C",
"'. c #AE855B",
"]. c #8D8063",
"[. c #908062",
"{. c #918568",
"}. c #9C8468",
"|. c #888278",
" X c #978970",
".X c #9C8D76",
"XX c #9D927C",
"oX c #A08869",
"OX c #A58865",
"+X c #B08D67",
"@X c #B09367",
"#X c #B89966",
"$X c #A48E74",
"%X c #AD9C7D",
"&X c #CDA668",
"*X c #C2A169",
"=X c #CDAC74",
"-X c #ACA288",
";X c #B2A088",
":X c #AEA595",
">X c #CCB180",
",X c #D5BA85",
"<X c #CBBEA5",
"1X c #D3C3AA",
"2X c None",
/* pixels */
"2X2X2X2X2X2X2X2X2X2X2X2X2X2X2X2X2X2X2X2X2X2X2X2X2X2X2X2X2X2X2X2X2X2X2X2X2X2X2X2X2X2X",
"2X2X2X2X2X2X2X2X2X2X2X2X2X2X2X2X2X2X2X2X2X2X2X2X2X2X2X2X2X2X2X2X2X2X2X2X2X2X2X2X2X2X",
"2X2X2X2X2X2X2X2X2X2X2X2X2X2X2X2X2X2X2X2X2X2X2X2X2X2X2X2X2X2X2X2X2X2X2X2X2X2X2X2X2X2X",
"2X2X2X2X2X2X2X2X2X2X2X2X2X2X2X2X2X2X2X2X2X2X2X2X2X2X2X2X2X2X2X2X2X2X2X2X2X2X2X2X2X2X",
"2X2X2X2X2X2X2X2X2X2X2X2X2X2X2X2X2X2X2X2X2X2X2X2X2X2XOXA.S.+X2X2X2X2X2X2X2X2X2X2X2X2X",
"2X2X2X2X2X2X2X2X2X2X2X2X2X2X2X2X2X2X2X2X2X2X2X2X2XQ.0.( q.S.OX2X2X2X2X2X2X2X2X2X2X2X",
"2X2X2X2X2X2X2X2X2X2X2X2X2X2X2X2X2X2X2X2X2X2X2X2XQ.#.0 ] g.U.~.$X;X2X2X2X2X2X2X2X2X2X",
"2X2X2X2X2X2X2X2X2X2X2X2X2X2X2X2X2X2X2X2X2X2X2X2Xf.q V %.s . S P g.2X2X2X2X2X2X2X2X2X",
"2X2X2X2X2X2X2X2X2X2X2X2X2X2X2X2X2X2X2X2X2X2X2XI.b V ' e.e.t.c.E H 2X2X2X2X2X2X2X2X2X",
"2X2X2X2X2X2X2X2X2X2X2X2X2X2X2X2X2X2X2X2X2X2XOX>.r _ ` %.R B.|.^.m.2X2X2X2X2X2X2X2X2X",
"2X2X2X2X2X2X2X2X2X2X2X2X2X2X2X2X2X2X2X2X2X`.7., H _ ' P F a.H.).J.2X2X2X2X2X2X2X2X2X",
"2X2X2X2X2X2X2X2X2X2X2X2X2X2X2X2X2X,X=X@X`.@.x 7 N ' _ G S +.5.4.F.2X2X2X2X2X2X2X2X2X",
"2X2X2X2X2X2X2X2X2X2X2X2X2X2X=X#X`.[.A.5.  j N < b ' Z c V q   Q C.2X2X2X2X2X2X2X2X2X",
"2X2X2X2X2X2X2X2X2X2X2X2X2X*XW.@.j 2 * c N l N l - Z m j V X.) ) 2X2X2X2X2X2X2X2X2X2X",
"2X2X2X2X2X2X2X2X2X2X2X2X&XE.;.T K U Y P j z v y - y Z * 6.K.Z.(.2X2X2X2X2X2X2X2X2X2X",
"2X2X2X2X2X2X2X2X2X2X2X2XD.$.T L l D v L l j , 1 ; ; n * @.L._.'.<X2X2X2X2X2X2X2X2X2X",
"2X2X2X2X2X2X2X2X2X2X2X2Xw.K L L l C N j j 5 j j : o # 1 ; p } ! /.1X2X2X2X2X2X2X2X2X",
"2X2X2X2X2X2X2X2X2X2X2XD.7.L D j l D k < i P T I l 1 - #     % p 9  X2X2X2X2X2X2X2X2X",
"2X2X2X2X2X2X2X2X2X2X2XP.$.L z z v l j j v T *.&.K z j ; M >.;./.7.z.2X2X2X2X2X2X2X2X",
"2X2X2X2X2X2X2X2X2X2X2Xz.v C j d d 1 z l k l W $.T v c L x.^.!.%X%X9.2X2X2X2X2X2X2X2X",
"2X2X2X2X2X2X2X2X2X2XY.+.L N k 1 + > 1 5 > j L T U D v U *.t.1.3././.2X2X2X2X2X2X2X2X",
"2X2X2X2X2X2X2X2X2X2X0.P ` b k l 1 X - $ X , i j 1 > < 1 T %.2.*.h 7.2X2X2X2X2X2X2X2X",
"2X2X2X2X2X2X2X2X2XR.3.Z Z l k i > o o + o & 7 o & j v G ] x.!.!.s.w 2X2X2X2X2X2X2X2X",
"2X2X2X2X2X2X2X2X2Xk.Z / k k t ; - o - > > j Y T T T T G v =.s.U. X2X2X2X2X2X2X2X2X2X",
"2X2X2X2X2X2X2X2XM.o.o.T N k - > = - 1 t : j T *.$.W K v j v ] i.[.2X2X2X2X2X2X2X2X2X",
"2X2X2X2X2X2X2Xn.2.T L l l i >     7 > t : j T $.$.T K v 7 i x ] P.2X2X2X2X2X2X2X2X2X",
"2X2X2X2X2X2XU.>.] L 7 j , >   m.1.  j 1 1 t L T T W W U L U Y r.G.2X2X2X2X2X2X2X2X2X",
"2X2X2X2X2X2Xi.P U 7 v j o 6   2X-Xh & 7 - 1 v U T T &.T L T L <.k.2X2X2X2X2X2X2X2X2X",
"2X2X2X2X2Xs.;.L j z v 1 , j 2X2X2XR.. < # , P T U D Y L v L l C o.G.2X2X2X2X2X2X2X2X",
"2X2X2X2X2X2.%.C 6 j k 1 5 2X2X2X2XP.;.< i t Z L v D L c c c j v   m I.2X2X2X2X2X2X2X",
"2X2X2X2Xx.2.%.v c x 7 1 6 8 2X2X2XY.9.N j 7 N l d D K Y L l C j i > ~ j.}.2X2X2X2X2X",
"2X2X2X2Xt.%.T G N x > , 6 3 2X2X2XT._ k i j l N v D v U Y N L < j z o [ ;.7.2X2X2X2X",
"2X2X2Xt.$.Y D v u , + + > 8 2X2X2Xz.  k > 7 i j L z z v v k j $ k > H ..O J u.f.2X2X",
"2X2X2Xr.$.L 8 7 , > - > 7 2X2X2X~.} X N k j j < l v d C l k t ; , k G 4 x E S { 2X2X",
"2X2X2Xs.T v z < 1 1 - 6 2X2X2X Xz.e 1 1 k z l j d j z z l f   , < k s a v .._ } 2X2X",
"2X2X2Xr.L l 7 & , 1 < 2X2X2X2X].' j u < 8 p v l & & z D l I 2X2X2Xk x v H s ' 2X2X2X",
"2X2X2X*.j L j i - , u 2X2X2X{.9.N x i 6 7 j c v & & N N f I k.2X2X2XM i , 2X2X2X2X2X",
"2X2X2X$.G Y G ] G o 2X2X2X2XT.Z v p 8 6 7 d j N < 7 f : l t ` >.P.2X2X2X2X2X2X2X2X2X",
"2X2X2X%.U v 8 x H u 2X2X2XR.p.N k 5 6 6 7 d d j d t < - t j y k I u.2X2X2X2X2X2X2X2X",
"2X2X2X] G S a A 6 , 2X2X2XP.o.x j 7 6 7 c j d l l & X & 1 g k x , ; %.2X2X2X2X2X2X2X",
"2X2X2Xo.G  .W 8 , 5 2X2X~.P.I a 5 7 d z c d j z t - o X ; t l M z j ; +.2X2X2X2X2X2X",
"2X2X2XT ]  .W E 5 u 2X2XM.:.l z 1 d j c j z j j 1 - # o # 1 l l j j i B z.2X2X2X2X2X",
"2X2X2X%.] | W J G v 2X2Xn.P z 7 7 7 8 d j c 1 l j o - # # ; 1 i 5 j z y l.2X2X2X2X2X",
"2X2X2X2X2XE U H H M 2X2Xi.v z j 6 , 8 j j 1 > D 2Xl ; ; - > > 1 1 1 i N >.M.2X2X2X2X",
"2X2X2X2X2X2X2X2X2X2X2Xi.,.z d 7 6 j d j 1 d l 2X2X2Xk ; ; > > - - > # N P s.2X2X2X2X",
"2X2X2X2X2X2X2X2X2X2X2Xt.$.7 1 j z 7 j 1 1 L 2X2X2X2XN 1 - > & & & o & t k i.XX2X2X2X",
"2X2X2X2X2X2X2X2X2X2X2X1.T < 1 l S u - j I 2X2X2X2X2X2Xl > 1 1 < - - 1 1 b ,.N.2X2X2X",
"2X2X2X2X2X2X2X2X2X2X2X%.l : u z j , ; L 2X2X2X2X2X2X2X2X2X1 1 > - & > j t H 2X2X2X2X",
"2X2X2X2X2X2X2X2X2X2Xt.l > > 6 7 1 t C 2X2X2X2X2X2X2X2X2X2X2XC 1 X - 1 1 i ;.2X2X2X2X",
"2X2X2X2X2X2X2X2XU.p.P 7 1 1 7 i : l 2X2X2X2X2X2X2X2X2X2X2X2X2XN   1 t 1 B i.2X2X2X2X",
"2X2X2X2X2X2X2Xb.7.m < j 7 > 7 j l ] 2X2X2X2X2X2X2X2X2X2X2X2X3.: t t 1 n ^ 7.2X2X2X2X",
"2X2X2X2X2X~.n.>.C 7 7 d 7 + 1 1 v 2X2X2X2X2X2X2X2X2X2X2X2X2XO.: j t 1 n O.i.2X2X2X2X",
"2X2X2X2X2Xl.@.C z 1 > 7 7 ; + 1 2X2X2X2X2X2X2X2X2X2X2X2X2X9.1 j g : j k O.b.2X2X2X2X",
"2X2X2X2X2Xp.' t 1 6 1 1 < : > 2X2X2X2X2X2X2X2X2X2X2X2X2X2XO.1 t - : g g :.2X2X2X2X2X",
"2X2X2X2XU.7.x i 7 j p 8 6 > 1 2X2X2X2X2X2X2X2X2X2X2X2X2X2X-.< , , i t g 1.2X2X2X2X2X",
"2X2X2X2XT.'   u , t u 6 = X 2X2X2X2X2X2X2X2X2X2X2X2X2X2X2XN.  > > 6   v v.2X2X2X2X2X",
"2X2X2X2Xd.@ 5 , $ , , $ X 2X2X2X2X2X2X2X2X2X2X2X2X2X2X2X2Xc.  6 4 c   y.2X2X2X2X2X2X",
"2X2X2XXX>.  s $ , u 8 > 2X2X2X2X2X2X2X2X2X2X2X2X2X2X2X2X2Xr.  k 1 D   m.:X2X2X2X2X2X",
"2X2X2Xb.e 4 u 4 5 u % 2X2X2X2X2X2X2X2X2X2X2X2X2X2X2X2X2X2XG 4 x , i x ' ^.V.2X2X2X2X",
"2X2X2XH u s s u w S S 2X2X2X2X2X2X2X2X2X2X2X2X2X2X2X2X2X2X  > p r u J S @ | 2X2X2X2X",
"2X2Xk V H M H H s x W e.2X2X2X2X2X2X2X2X2X2X2X2X2X2X2X2X2X2XX # @ r Y U 2X2X2X2X2X2X",
"2X2X2XH ..E  . .E O A 2X2X2X2X2X2X2X2X2X2X2X2X2X2X2X2X2X2X2X2X2X2X2XJ T 2X2X2X2X2X2X",
"2X2X2XU R &. .W 2X2X2X2X2X2X2X2X2X2X2X2X2X2X2X2X2X2X2X2X2X2X2X2X2X2X2X2X2X2X2X2X2X2X",
"2X2X2X2X2X2X2X2X2X2X2X2X2X2X2X2X2X2X2X2X2X2X2X2X2X2X2X2X2X2X2X2X2X2X2X2X2X2X2X2X2X2X"
};
