/* XPM */
static char *be6ddb089bda41d680b6e1a54b93270egIZ4Y5ZGc8uynhXw[] = {
/* columns rows colors chars-per-pixel */
"64 64 12 1 ",
"  c None",
". c #000008",
"X c #5F1F17",
"o c #7B3323",
"O c #535353",
"+ c #9B3B00",
"@ c #A7573B",
"# c #B76743",
"$ c #D38353",
"% c #FF9747",
"& c #FFB373",
"* c #FFDBA7",
/* pixels */
"                                                                ",
"                                                                ",
"                                                                ",
"                                                                ",
"                                                                ",
"                                                                ",
"                              @@@@                              ",
"                            @@####@@                            ",
"                           @#$$$$$$#@                           ",
"                          @#$$&&&&$$#@                          ",
"                          @#$&&**&&$#@                          ",
"                          o@#$$&&$$#@o                          ",
"                         o@o@@o$$o@@o@o                         ",
"                         @#.OO.$$.OO.#@                         ",
"                       oo@$o@@o&&o@@o$@                         ",
"                     ooXX@$#@@$$$$@@#$@X                        ",
"                   o@#@@Xo@$$@@@@@@$$@oXXoo                     ",
"                  @$$$$@Xoo@@.+%%+.@@ooXXXoo                    ",
"                 o$&&$$#@Xooo......@oXXX@$@o                    ",
"                 @$&&&$$#Xoo@.+%%+.@oXX@$&$@o                   ",
"                o@$$$$$$$@@o@@@@@@@@oXo$$$$@X                   ",
"                o@@$$$@$$#oo@$$&&$$@oX#$$$#@Xo                  ",
"                ooo@oo@@$$@oo@@@@@@oo@$#@@@oXXo                 ",
"               oooo@@oo@@&$$$$$$$$&&$@@@@@oXX@oo                ",
"              ooo@@$@@o@@&&&&$@@$&&$#@oo@oXX@@@o                ",
"              oo@@$$@@oo@$$$$$@@$$$$@@oXoo@$$@Xo                ",
"              oo@@$@o@oo@$$$$#@@#@@@@@oXoo$$&@@o                ",
"              o@@@$oooooX@@@@@oo@@@@@oXooo@$&$@oo               ",
"              @@$@@o oooo@@@@@oo@@oooXXoo @$&o@@o               ",
"              @$$$@o  ooooooooooooXXXXXo  o@@o$@o               ",
"              @@$&@o   oooX@@@@@@@@XXXoo   @@o$oo               ",
"              @$$&o     oX@#$&&&&$#@Xoo    oo$@@o               ",
"               @@$$o    o@@#$$&&$$#@@oo    oo$$@o               ",
"               @@@&@o  oXXo@@@@@@@@o@@o     o$$@o               ",
"                @$$@o  ooXX#$$&&$$$#@o#o    o$@@o               ",
"                @@$$@  oo@X#o@@@@o#@o#$$@   o@@oo               ",
"               @@@@@@  o@@XX#$$$$#@o#$$$@  oo$oo                ",
"               @$@@@@  o@@oXX@@@@@Xo&&$$@ o@$$@o                ",
"               @$@@@o oo@$ooX@XX@Xo@&&&$@ o@$$oo                ",
"               @$@$@@ oo@$@oooXXXXo@&&$$@oo@@@@o                ",
"               o$@$@  oo@@@oXXXXXXX@$&$$@o @@o@o                ",
"                o@$@  Xo@ooXXXo XXXo@$$$@  oooo                 ",
"                oooo  XXooXo@@o o@@oX@@@X oo o                  ",
"                 o o  oXo$$Xo@   @oX$$oXo                       ",
"                      oX@$$@oo   oo@$$@Xo                       ",
"                       o@@@@oo   oo@@@@o                        ",
"                       oXooXoo   ooXooXo                        ",
"                       ooXXXo     oXXXoo                        ",
"                       oooooo     oooooo                        ",
"                        oooo       oooo                         ",
"                        oooo       oooo                         ",
"                        o@ooo     ooo@o                         ",
"                        o@@oo     oo@@oo                        ",
"                        o@ooo     ooo@oo                        ",
"                        o@ooo     ooo@@o                        ",
"                       oo@oo       oo@oo                        ",
"                      oo@@oo       oo@@oo                       ",
"                     o@@@@oo       oo@@@@o                      ",
"                     oo@@@@@o     o@@@@@oo                      ",
"                      o$$o@@o     o@@$$$o                       ",
"                      o$$o$$o     o$$$$$o                       ",
"                       @@o$@       @$$@@                        ",
"                                                                ",
"                                                                "
};
