/* XPM */
static char *_ff649c2e8df43ecd94f61e52f8804efaIEb0MDeJqMdHgOe[] = {
/* columns rows colors chars-per-pixel */
"64 64 17 1 ",
"  c None",
". c gray20",
"X c #484848",
"o c gray32",
"O c #535353",
"+ c #5F5F5F",
"@ c gray39",
"# c #747474",
"$ c #777777",
"% c #872F00",
"& c #AF4F00",
"* c #EB6300",
"= c #FF9747",
"- c gray55",
"; c #979797",
": c #BBBBBB",
"> c #CBCBCB",
/* pixels */
"                                                                ",
"                                                                ",
"                                                                ",
"                                                                ",
"                                                                ",
"                                                                ",
"                                                                ",
"                                                                ",
"                                                                ",
"                                                                ",
"                                                                ",
"                                                                ",
"                                                                ",
"                                                                ",
"                                                                ",
"                                                                ",
"                           ..........                           ",
"                          .OOOOOOOOOO.                          ",
"                         .OO$$;>>;$$OO.                         ",
"                        ..O$$$;>>;$$$O..                        ",
"                       O..O$.OO$$OO.$O..O                       ",
"                       O...O&*====*&O...O                       ",
"                      .@%.O&*=****=*&O.%@.                      ",
"                      ..&.O&*=*&&*=*&O.&...                     ",
"                   XXXX.&..$$$;>>;$$$..&.OOOOO                  ",
"                  X+$-XO%.%@$$$>>$$$@%.%OO::;$OO                ",
"                 XO$$$-;..@...O$$O...@..;:;;;;$@O               ",
"                X.XOO++$O..O$;;>>;;$O..O$;;;;$$@@O              ",
"               XOO.XOO+$O...O$;;;;$O...O$$;$$@@@@O              ",
"              XOOOO+XOO@$$OOOOOOOO.....O$$$$$@@@O.O             ",
"              XOOOO+XOO$O.....O..;;:::;.@$$$@@OO.@@O            ",
"             XOOOO+$+OO@.;:::;;OO$$;;;$@@@@@@O$@@@@@O           ",
"             XXOOO+++XX@@$;;;$$OO$$;;;$@O@@@@O$@@@@@O           ",
"             XOO+$-+XX.O@$;;;$$OO$$$;$$$.OOOO$;;$@@@@           ",
"            XOO+++$+O.X.$$$;$$$OO$$$$$$@O@.OO$$:$@@@O           ",
"            XOXO+$+OO.XO@$$$$$$OO@@@@$@@.@O.O$;:;$@@O           ",
"            XXXOO+OOX.X.@@$@@@@..O@@@@@O:OO.@$$;$$$@@O          ",
"            XXXOOOXX...:O@@@@@O..O@@@@O.;@O.@@$;$$@O@O          ",
"            XXXXOX.. ..;.O@@@@O...O@@OO.$O..O@@$@@@OOO          ",
"            XOXXX..   .$.OO@@O.$$@.$@...OO...OO@@@@OO           ",
"           XO+$XX      O...@$.@@@OO.....O..  ..O@@OOO           ",
"           XX+$OXX     O.....OOOOO........    ..OOOO@O          ",
"            +$+OXX     .......O$$@O.$..OO      ..OO@@O          ",
"            O++OXXX    OO..$.O@@@OO.$$$O       OO@$$@O          ",
"            O+$+++XX    O$$$.OOOOO..$@@O       OOO;$@O          ",
"            X+$$++OX    O@@$..O......@.O       OO@;$O           ",
"            XX+$+O X   O.@.........O.$@@O      O@$;$            ",
"             XO+OO    XO@O.......O@OO;$@O      O@$$@            ",
"             XOOOXX  XO$;$OO@O...O@@O:$@O   OO$$$;$@            ",
"             XXOOXX  XO$:$O@@O...O@$@$@O    O@$$;;$             ",
"              XX  X   X@$@@$@O   O@;$$OO   OO@@$;$O             ",
"               XX     XO$O$;@O   XO-$OOX   O O@@$@O             ",
"                X     X@@O;:@O   XO++XOX     OO@@@              ",
"                      O@OO$$@O    XXO$OOX    OO@@OO             ",
"                      O@$@OOO     XXO-OOX    O  OO              ",
"                     OO@;$OO       XX$OX    OO OO               ",
"                     O@@;$@OO     XXOOXXX                       ",
"                     O@@:;@OO     XXX$XXX                       ",
"                      O@;:$OO    XXXXXXXX                       ",
"                     OOO@:@@OO   XOO+$+OOO                      ",
"                     OOO;:$OOO   XXXXXXXXO                      ",
"                     OOOOOOOOOO                                 ",
"                    O@@$;;;$@@O                                 ",
"                    OOOOOOOOOOO                                 "
};
