/* XPM */
static char *b86ff1cdc0bb4d0c9da110e1354badeb35fjcHc89TRowOst[] = {
/* columns rows colors chars-per-pixel */
"64 64 14 1 ",
"  c gray12",
". c gray15",
"X c #2A2A2A",
"o c gray17",
"O c gray20",
"+ c gray22",
"@ c #3C3C3C",
"# c #3E3E3E",
"$ c gray25",
"% c gray26",
"& c #434343",
"* c gray27",
"= c #494949",
"- c #535353",
/* pixels */
"@%-------------------------------------------------------------@",
"*@@%%%%%%%%%%%%%%%%%%%%%%%%%%%%%%%%%%%%%%%%%%%%%%%%%%%%%%%%%%%@O",
"-@@@@@@@@@++@@@%=%%%@@%%%@@@@@@@+++@@%%=%%%@++%%%@@@@@@@@@@@@@Oo",
"-%@O O@@@++@@@%=%%%@@%%%@@@@@@@+++@@%%=%%%@++%%%@@@@@@@@@O O@+O ",
"-%@ O@%@@+@@@%=%%%@@%%%@@@@@@@+++@@%%=%%%@++%%%@@@@@@@@@@ O@%+O ",
"-%@O@%-@@@@@%=%%%@@%%%@@@@@@@+++@@%%=%%%@++%%%@@@@@@@@@@@O@%-+O ",
"-%@@%-@@@@@%=%%%@@%%%@@@@@@@+++@@%%=%%%@++%%%@@@@@@@@@@@@+%-++O ",
"-%@@@++@@@%=%%%@@%%%@@@@@@@+++@@%%=%%%@++%%%@@@@@@@@@@@@@@@+++O ",
"-%@@++@@@%=%%%@@%%%@@@@@@@+++@@%%=%%%@++%%%@@@@@@@@@@@@@@@+++@O ",
"-%@@+@@@%=%%%@@%%%@@@@@@@+++@@%%=%%%@++%%%@@@@@@@@@@@@@@@+++@@O ",
"-%@@@@@%=%%%@@%%%@@@@@@@+++@@%%=%%%@++%%%@@@@@@@@@@@@@@@+++@@%O ",
"-%@@@@%=%%%@@%%%@@@@@@@+++@@%%=%%%@++%%%@@@@@@@@@@@@@@@+++@@%%O ",
"-%@@@%=%%%@@%%%@@@@@@@+++@@%%=%%%@++%%%@@@@@@@@@@@@@@@+++@@%%=O ",
"-%@@%=%%%@@%%%@@@@@@@+++@@%%=%%%@++%%%@@@@@@@@@@@@@@@+++@@%%=%O ",
"-%@%=%%%@@%%%@@@@@@@+++@@%%=%%%@++%%%@@@@@@@@@@@@@@@+++@@%%=%%O ",
"-%%=%%%@@%%%@@@@@@@+++@@%%=%%%@++%%%@@@@@@@@@@@@@@@+++@@%%=%%%O ",
"-%=%%%@@%%%@@@@@@@+++@@%%=%%%@++%%%@@@@@@@@@@@@@@@+++@@%%=%%%@O ",
"-%%%%@@%%%@@@@@@@+++@@%%=%%%@++%%%@@@@@@@@@@@@@@@+++@@%%=%%%@+O ",
"-%%%@@%%%@@@@@@@+++@@%%=%%%@++%%%@@@@@@@@@@@@@@@+++@@%%=%%%@++O ",
"-%%@@%%%@@@@@@@+++@@%%=%%%@++%%%@@@@@@@@@@@@@@@+++@@%%=%%%@++%O ",
"-%@@%%%@@@@@@@+++@@%%=%%%@++%%%@@@@@@@@@@@@@@@+++@@%%=%%%@++%%O ",
"-%@%%%@@@@@@@+++@@%%=%%%@++%%%@@@@@@@@@@@@@@@+++@@%%=%%%@++%%%O ",
"-%%%%@@@@@@@+++@@%%=%%%@++%%%@@@@@@@@@@@@@@@+++@@%%=%%%@++%%%@O ",
"-%%%@@@@@@@+++@@%%=%%%@++%%%@@@@@@@@@@@@@@@+++@@%%=%%%@++%%%@@O ",
"-%%@@@@@@@+++@@%%=%%%@++%%%@@@@@@@@@@@@@@@+++@@%%=%%%@++%%%@@@O ",
"-%@O O@@@+++@@%%=%%%@++%%%@@@@@@@@@@@@@@@+++@@%%=%%%@++%%O O@@O ",
"-%@ O@%@+++@@%%=%%%@++%%%@@@@@@@@@@@@@@@+++@@%%=%%%@++%%% O@%@O ",
"-%@O@%-+++@@%%=%%%@++%%%@@@@@@@@@@@@@@@+++@@%%=%%%@++%%%@O@%-@O ",
"-%@+%-+++@@%%=%%%@++%%%@@@@@@@@@@@@@@@+++@@%%=%%%@++%%%@@+%-++O ",
"-%++++++@@%%=%%%@++%%%@@@@@@@@@@@@@@@+++@@%%=%%%@++%%%@@@@@@++O ",
"-@OOOOOOOOOOOOOOOOOOOOOOOOOOOOOOOOOOOOOOOOOOOOOOOOOOOOOOOOOOOOo.",
"@Oo                                                           .o",
"-------------------------------@@%------------------------------",
"%%%%%%%%%%%%%%%%%%%%%%%%%%%%%%@O*@@%%%%%%%%%%%%%%%%%%%%%%%%%%%%%",
"+++@@%%=%%%@++%%%@@@@@@@@@@@@@Oo-@@@@@@@@@++@@@%=%%%@@%%%@@@@@@@",
"++@@%%=%%%@++%%%@@@@@@@@@O O@+O -%@O O@@@++@@@%=%%%@@%%%@@@@@@@+",
"+@@%%=%%%@++%%%@@@@@@@@@@ O@%+O -%@ O@%@@+@@@%=%%%@@%%%@@@@@@@++",
"@@%%=%%%@++%%%@@@@@@@@@@@O@%-+O -%@O@%-@@@@@%=%%%@@%%%@@@@@@@+++",
"@%%=%%%@++%%%@@@@@@@@@@@@+%-++O -%@@%-@@@@@%=%%%@@%%%@@@@@@@+++@",
"%%=%%%@++%%%@@@@@@@@@@@@@@@+++O -%@@@++@@@%=%%%@@%%%@@@@@@@+++@@",
"%=%%%@++%%%@@@@@@@@@@@@@@@+++@O -%@@++@@@%=%%%@@%%%@@@@@@@+++@@%",
"=%%%@++%%%@@@@@@@@@@@@@@@+++@@O -%@@+@@@%=%%%@@%%%@@@@@@@+++@@%%",
"%%%@++%%%@@@@@@@@@@@@@@@+++@@%O -%@@@@@%=%%%@@%%%@@@@@@@+++@@%%=",
"%%@++%%%@@@@@@@@@@@@@@@+++@@%%O -%@@@@%=%%%@@%%%@@@@@@@+++@@%%=%",
"%@++%%%@@@@@@@@@@@@@@@+++@@%%=O -%@@@%=%%%@@%%%@@@@@@@+++@@%%=%%",
"@++%%%@@@@@@@@@@@@@@@+++@@%%=%O -%@@%=%%%@@%%%@@@@@@@+++@@%%=%%%",
"++%%%@@@@@@@@@@@@@@@+++@@%%=%%O -%@%=%%%@@%%%@@@@@@@+++@@%%=%%%@",
"+%%%@@@@@@@@@@@@@@@+++@@%%=%%%O -%%=%%%@@%%%@@@@@@@+++@@%%=%%%@+",
"%%%@@@@@@@@@@@@@@@+++@@%%=%%%@O -%=%%%@@%%%@@@@@@@+++@@%%=%%%@++",
"%%@@@@@@@@@@@@@@@+++@@%%=%%%@+O -%%%%@@%%%@@@@@@@+++@@%%=%%%@++%",
"%@@@@@@@@@@@@@@@+++@@%%=%%%@++O -%%%@@%%%@@@@@@@+++@@%%=%%%@++%%",
"@@@@@@@@@@@@@@@+++@@%%=%%%@++%O -%%@@%%%@@@@@@@+++@@%%=%%%@++%%%",
"@@@@@@@@@@@@@@+++@@%%=%%%@++%%O -%@@%%%@@@@@@@+++@@%%=%%%@++%%%@",
"@@@@@@@@@@@@@+++@@%%=%%%@++%%%O -%@%%%@@@@@@@+++@@%%=%%%@++%%%@@",
"@@@@@@@@@@@@+++@@%%=%%%@++%%%@O -%%%%@@@@@@@+++@@%%=%%%@++%%%@@@",
"@@@@@@@@@@@+++@@%%=%%%@++%%%@@O -%%%@@@@@@@+++@@%%=%%%@++%%%@@@@",
"@@@@@@@@@@+++@@%%=%%%@++%%%@@@O -%%@@@@@@@+++@@%%=%%%@++%%%@@@@@",
"@@@@@@@@@+++@@%%=%%%@++%%O O@@O -%@O O@@@+++@@%%=%%%@++%%%@@@@@@",
"@@@@@@@@+++@@%%=%%%@++%%% O@%@O -%@ O@%@+++@@%%=%%%@++%%%@@@@@@@",
"@@@@@@@+++@@%%=%%%@++%%%@O@%-@O -%@O@%-+++@@%%=%%%@++%%%@@@@@@@@",
"@@@@@@+++@@%%=%%%@++%%%@@+%-++O -%@+%-+++@@%%=%%%@++%%%@@@@@@@@@",
"@@@@@+++@@%%=%%%@++%%%@@@@@@++O -%++++++@@%%=%%%@++%%%@@@@@@@@@@",
"OOOOOOOOOOOOOOOOOOOOOOOOOOOOOOo.-@OOOOOOOOOOOOOOOOOOOOOOOOOOOOOO",
"                              .o@Oo                             "
};
