/* XPM */
static char *_bd7fc229c15423696e5e353fa9522aawzVFTUwhv7bTyF7R[] = {
/* columns rows colors chars-per-pixel */
"64 64 231 2 ",
"   c #000100",
".  c #0A0705",
"X  c #030C01",
"o  c #090E03",
"O  c #1E0000",
"+  c #021400",
"@  c #0D1304",
"#  c #051A03",
"$  c #101605",
"%  c #121A06",
"&  c #151B08",
"*  c #171B09",
"=  c #1A1E14",
"-  c #191C17",
";  c #250500",
":  c #300300",
">  c #2C1A00",
",  c #351E00",
"<  c #002600",
"1  c #162704",
"2  c #1A220B",
"3  c #1E2A0C",
"4  c #153700",
"5  c #1F231A",
"6  c #242801",
"7  c #222C0E",
"8  c #362801",
"9  c #273909",
"0  c #262714",
"q  c #232C12",
"w  c #312D17",
"e  c #263311",
"r  c #293513",
"t  c #2D3B15",
"y  c #2C371B",
"u  c #303E17",
"i  c #39341A",
"p  c #3B351C",
"a  c #313F18",
"s  c #252723",
"d  c #2C3525",
"f  c #333D23",
"g  c #373B27",
"h  c #412B00",
"j  c #443200",
"k  c #493902",
"l  c #503B00",
"z  c #423A1E",
"x  c #4B3E18",
"c  c #443D22",
"v  c #463F27",
"b  c #2C4600",
"n  c #354902",
"m  c #3A5500",
"M  c #314117",
"N  c #34431A",
"B  c #39461D",
"V  c #3B4A1E",
"C  c #394624",
"Z  c #3E4D21",
"A  c #394429",
"S  c #3F5020",
"D  c #4D4202",
"F  c #544500",
"G  c #5B4B03",
"H  c #465C00",
"J  c #5E5100",
"K  c #584A17",
"L  c #44551A",
"P  c #695C0C",
"I  c #566C00",
"U  c #5A7200",
"Y  c #4E611E",
"T  c #647901",
"R  c #6A7F00",
"E  c #716319",
"W  c #677C12",
"Q  c #4C4226",
"!  c #464828",
"~  c #564A25",
"^  c #514629",
"/  c #544A2C",
"(  c #594E2F",
")  c #435323",
"_  c #475825",
"`  c #495A26",
"'  c #45532A",
"]  c #4D5D29",
"[  c #5D522F",
"{  c #4C4732",
"}  c #534A31",
"|  c #594E32",
" . c #4C5833",
".. c #5D5232",
"X. c #585938",
"o. c #675A29",
"O. c #615634",
"+. c #655A36",
"@. c #665A37",
"#. c #665C3B",
"$. c #6A5E3B",
"%. c #4F602B",
"&. c #53642C",
"*. c #57692B",
"=. c #566533",
"-. c #5B6C33",
";. c #586834",
":. c #5F7035",
">. c #687B2C",
",. c #6C6337",
"<. c #6E613D",
"1. c #786B37",
"2. c #71653E",
"3. c #756A3B",
"4. c #617336",
"5. c #667937",
"6. c #647539",
"7. c #67783B",
"8. c #6B7D3D",
"9. c #4B4E42",
"0. c #4E524A",
"q. c #545848",
"w. c #665C43",
"e. c #5B6844",
"r. c #5E6651",
"t. c #6E6443",
"y. c #636E4D",
"u. c #716542",
"i. c #746942",
"p. c #786D49",
"a. c #6B7B45",
"s. c #767048",
"d. c #7B7249",
"f. c #646658",
"g. c #736C56",
"h. c #76785B",
"j. c #6D6F66",
"k. c #726F62",
"l. c #777668",
"z. c #7A7B75",
"x. c #83794C",
"c. c #837A56",
"v. c #6E8203",
"b. c #71840B",
"n. c #73862B",
"m. c #6F8232",
"M. c #6E803F",
"N. c #758737",
"B. c #6F8040",
"V. c #738443",
"C. c #778845",
"Z. c #798A46",
"A. c #748448",
"S. c #7D8D4A",
"D. c #7F904B",
"F. c #7D8D54",
"G. c #7D876C",
"H. c #81923F",
"J. c #808F4E",
"K. c #829242",
"L. c #83934D",
"P. c #859451",
"I. c #889750",
"U. c #899851",
"Y. c #89975B",
"T. c #868966",
"R. c #87946A",
"E. c #86847A",
"W. c #938D7C",
"Q. c #939E74",
"!. c #94A16F",
"~. c #9DA87C",
"^. c #888983",
"/. c #908C82",
"(. c #8E9286",
"). c #999786",
"_. c #9A9A91",
"`. c #999994",
"'. c #A29D91",
"]. c #9BA487",
"[. c #9BA093",
"{. c #A3AC88",
"}. c #A8B28A",
"|. c #A6A699",
" X c #AAB298",
".X c #A9AAA5",
"XX c #B1AEA9",
"oX c #AFB2A9",
"OX c #B4B3AD",
"+X c #B5BAA8",
"@X c #B5B6B2",
"#X c #B8B7B3",
"$X c #BBBBB3",
"%X c #BEBEBA",
"&X c #C1BEB6",
"*X c #BDC3AE",
"=X c #BEC2B5",
"-X c #C1C7AF",
";X c #C2C4BC",
":X c #C5CABB",
">X c #C5C5C2",
",X c #C7C8C3",
"<X c #CACBC5",
"1X c #CDCDCA",
"2X c #D0CECA",
"3X c #CED0C9",
"4X c #D3D5CC",
"5X c #D5D5D3",
"6X c #D7D9D2",
"7X c #DADBD5",
"8X c #DCDCDB",
"9X c #DDE0D7",
"0X c #DFE0DC",
"qX c #E1E2DE",
"wX c #E5E5E4",
"eX c #E7E8E6",
"rX c #E9E8E7",
"tX c #EDEDED",
"yX c #EFF0EF",
"uX c #F0F0EF",
"iX c #EFEFF0",
"pX c #F0EFF0",
"aX c #EFF0F0",
"sX c #F3F3F3",
"dX c #F4F4F4",
"fX c #F7F7F7",
"gX c #F7F8F7",
"hX c #F8F8F8",
"jX c #F9F8F9",
"kX c #FAFAFA",
"lX c #FCFCFC",
/* pixels */
"lXjXdXjXdXlXsXlXsXlXsXlXsXlXsXjXdXjXdXdXjXdXjXdXjXsXlXsXlXsXlXsXlXsXjXdXjXdXjXjXdXjXdXjXsXjXsXlXdXlXsXlXsXjXsXjXdXjXdXdXjXdXjXsX",
"jXsXsXsXsXsXsXdXsXdXsXdXsXsXsXsXsXsXsXsXsXsXsXsXsXsXsXsXdXsXdXsXsXsXsXsXsXsXsXsXsXsXyXsXsXdXdXjXqXtXdXdXuXsXsXsXsXsXsXsXsXsXsXdX",
"dXsXdXsXdXsXdXtXdXtXdXtXdXsXdXsXdXsXsXsXsXdXsXdXdXdXsXdXtXdXtXdXtXdXsXdXyXsXdXdXjXjXlXdX=X7X9X~.+XsXqX8XjXuXdXsXdXsXsXsXsXdXsXjX",
"jXsXsXdXtXdXtXdXtXdXtXdXtXdXtXdXsXdXsXsXsXsXdXwX7XwXsXdXlXdXlXdXjXtXdXsXlXsXtX8X4X<X>X*XR R.L.m.8X-X}.sXtXdXaXdXsXsXsXsXdXsXdXsX",
"sXsXdXsXdXtXdXtXjXtXjXtXdXtXjXpXdXsXdXsXsXsXdX9Xb.Q.+X8X$X:X$X6XwXlXdXsX,X].F.m.I H T n.P.N.N.R.~.m.tXtXdXtXdXsXdXsXsXsXsXdXtXlX",
"lXsXsXdXtXdXtXjXtXjXtXjXiXjXtXdXsXsXsXsXsXsXlX XN.N.>.T W T W U T.=X,XT.R n.C.S.Z.J.I.P.L.L.S.S.H.Y.].dXsXdXtXdXsXdXsXsXdXsXdXtX",
"sXsXdXtXdXtXjXtXjXtXjXtXtXrXlXiXwXdXjXjXjXdX+XA.C.P.L.P.P.P.P.D.N.W U N.P.L.L.L.L.L.L.U.I.L.L.D.P.L.M.G.0XdXdXtXdXsXsXsXsXdXtXlX",
"lXsXsXdXtXjXtXjXtXjXtXgX3X}.=XqX!.8X<X<X7X).U S.S.L.L.L.L.I.I.L.S.S.S.S.L.L.U.U.U.U.U.U.U.U.I.L.L.P.P.N.W ;XsXdXtXdXsXsXdXsXdXtX",
"sXsXdXtXdXtXjXtXjXtXjXtXlX-Xv.Y.L.>.T T W m.P.L.L.L.P.P.U.U.U.U.P.L.L.L.L.U.U.U.U.U.U.U.U.U.U.L.L.L.L.U.P.U oXsXdXsXsXsXsXdXtXlX",
"lXsXsXdXtXjXtXjXtXjXtXlXwXR.L.L.S.S.S.S.S.L.L.L.L.L.L.L.U.U.U.U.U.U.I.L.L.I.U.U.I.U.U.U.U.U.U.I.L.I.I.U.L.I.U +XdXdXsXsXdXpXdXtX",
"sXsXdXtXdXtXjXtXgXtXlX8XF.N.L.S.L.L.S.Z.C.C.L.L.L.L.L.P.U.U.U.U.U.U.I.L.U.U.U.P.U.U.U.U.U.U.U.U.U.U.U.U.I.L.P.U $XdXsXsXuXdXtXlX",
"lXsXsXdXtXdXtXlXsXdXqXR.n.P.L.L.L.S.Z.C.8.8.6.S.U.D.L.P.U.U.U.U.U.U.L.L.L.S.L.U.L.I.U.U.U.U.U.U.U.U.U.U.U.U.L.Z.m >XjXdXdXsXdXtX",
"sXsXdXsXdXtXjX4X+X{.C.C.L.Z.S.S.S.S.Z.8.6.6.6.8.B.V.Z.L.I.U.I.U.I.S.Z.V.V.V.L.L.L.D.L.L.L.I.U.U.U.U.U.U.U.U.U.L.6.&.7XeXwXsXtXlX",
"jXsXsXdXtXjXwXQ.v.K.U.L.L.L.S.L.L.C.8.6.:.4.-.:.7.8.V.V.Z.S.S.L.S.C.C.V.Z.S.V.C.C.C.Z.S.S.L.P.U.U.U.U.U.U.U.L.L.L.5.Z.N.:XjXsXsX",
"sXsXdXsXdXsX4X!.Z.P.L.I.I.L.L.U.Z.8.7.4.:.-.-.6.8.8.8.8.V.C.C.C.C.S.Z.Z.U.L.C.B.M.8.V.C.Z.S.L.I.U.U.U.U.U.U.U.S.S.:.a.K.}.tXsXjX",
"jXsXsXsXsXtX}.N.S.8.Z.S.L.S.S.S.8.8.6.4.-.&.-.8.S.Z.8.8.M.8.V.V.L.L.L.Z.S.L.7.6.7.6.6.8.Z.S.S.I.I.I.U.U.U.U.L.S.C.6.%.4.T {.sXsX",
"dXsXsXsXsXdX6X{.L.:.7.7.C.8.B.8.8.7.4.:.-.&.-.S.I.S.V.V.V.B.V.S.L.L.L.C.B.V.-.:.-.-.-.7.8.Z.L.S.Z.U.U.U.U.U.P.S.V.6.*.L 6X:XwXjX",
"dXsXsXsXsXsXtX7X{.;.:.7.6.6.8.7.7.7.4.:.-.` ] V.L.P.Z.C.C.C.C.Z.C.Z.B.C.L.J.-.-.&.] ] -.7.7.7.L.Z.L.L.P.I.L.L.L.V.6.*. .tXlXsXdX",
"jXsXsXsXsXsXdXtXqX*.-.4.4.6.7.7.7.4.-.-.&.Z M -.Z.C.L.S.C.C.C.C.V.C.S.L.U.C.&.] ) V ) _ -.6.S.L.L.L.L.S.U.Z.S.Z.B.6.-.L 8XdXsXdX",
"dXsXsXsXdXsXsXjXdXh.*.4.:.4.7.7.4.-.-.&.` B B ) _ ] :.8.8.8.7.4.7.8.Z.C.I.;.V V V Z ) V ` :.B.6.L.Z.U.8.S.V.M.M.8.4.Y y.tXdXsXjX",
"jXsXsXdXtXdXsX5X_.a.-.-.-.-.4.-.-.-.-.&.B M N V Z ) ] &.-.-.&.] &._ Z ) ` V B B V V V ) ) ` &.6.V.8.L.8.8.B.8.B.8.4.H G.uXsXdXsX",
"sXsXsXsXlXtX|.b I 4.6.-.-.-.-.-.8.7.&.V N M M B ) _ ) ` ] ] ) -.4.6.-.B B M B M V ` ] &.&.] ` -.6.8.8.8.M.8.M.8.4.-.=.n 1XjXtXjX",
"jXsXjXtX7X XU F.L.S.Z.B.:.:.6.8.7.;.) B B M N ] &.&.&.&.] ` -.C.L.8.8.) t t r ` 8.V.8.-.&.7.6.4.8.B.8.M.M.8.8.6.-.&.;.4 oXjXdXtX",
"sXdX7XY.n.m.S.C.C.S.S.S.C.V.C.8.-.&.) B B u ) 8.8.4.4.V.8.) 6.Z.S.6.) Z * 3 e V 6.Z.6.-.&.4.8.8.8.M.M.8.8.4.4.-.&.;.=.e.$XjXtXlX",
"lXtX].V.a.=.&.&.-.8.S.L.U.P.S.4.&.) V B B e -.Z.Z.V.8.C.7.B ) 6.Z.6.1 $ @ o 7 t =.-.8.V.-.-.6.7.7.8.8.8.:.-.-.&.&.;.b &.7XsXdXtX",
"sXdX4Xa.` Z ` &.&.-.8.V.C.I.4.] ] Z B B B r 6.8.C.V.] &.B r q B 8.)   $ @ o 3 t 3 ) 8.C.8.&.-.4.4.6.6.6.4.&.&.&.=.n |.|.4XlXtXlX",
"lXtX Xe.9 Z ) ` &.&.%.&.&.8.` V ) V V V M t ) N 8.-.  2 r t 2   t X @ @ @ o 3 M t a t &.` ` &.&.&.-.4.8.L.C.-.&. .# OXlXsXiXdXtX",
"sXsXdXq.b Z V ) ) ` ` ` ` S Z V ) &.V r t t a e B V   $ * 2 @ @   @ @ $ $ @ 2 u M t r M V V ) ` ] ;.S.S.C.U.6.` '   `.dXsXdXtXlX",
"lXdXwXr.b Z B V Z V Z ) Z ) B Z B.4.&.4.) t B t   X @ @ o @ @ @ $ @ @ 0 @ @ o 3 N M t t t a B Z V 4.L.C.` a.%.V C # l.dXdXsXdXtX",
"sXsXjXl.4 C B B V V V V V V u -.-.-.V.6.] t a 3 @ @ @ @ $ $ @ @ - $ w i X $ @ o 7 t t t t t t V V Z 4.` V Z ) M C X z.sXsXdXtXlX",
"jXsXjX>X  A M N N B V V N N N V ;.8.] t N 3 2 o @ @ @ $ 2 + * s   8 Q 0 X @ @ @ o $ 7 t t t t t N M M N B B N t C   l.dXdXsXdXtX",
"sXsXdXtXj.1 C M M M B M M u u r 6.&.7 $ $ @ o @ @ @ @ * + w     0.w.8   - @ @ @ @ @ . 7 t t t t M N N N N N u t A   .XjXsXdXtXjX",
"jXsXuXlX[.< A M u M M t t t t e Z ! - % @ $ 2 2 2 2 @   0 O.f.$X8Xh _.^.  s X * @ $ @ * t t r t t a N N N a t r g   oXjXsXsXdXsX",
"dXsXsXdX=Xm ' V Z C C A A f y d       s 5 - 2 0 q * q d g G E.sX`.  _.8X+ @ p 0 0 * @ o e t e e r t t t t t r r y X 0XdXsXdXsXjX",
"jXsXsXjX$Xb  .' n 1 +     + 3   q.<X(.      -   8 $.v 9.p Q 8 #.8 Q o.E.9.z } 2 $ @ @ o 2 u t e e e e e r r e A   @XjXsXsXsXsXdX",
"dXsXsXjX;Xb 9 n ' %XqXOX=X(.] oXsXjXdX;Xl.9.  f.k.@.O.z c Q p @.} #.X.j 3.8   o s * @ @ @ 3 q r t e e e e e f   (.dXsXsXsXsXsXdX",
"dXsXsXsXdXy.E.=X7XjXjXjXlXtX7XjXdXsXsXjXdXrXwX8Xf.~ @.Q / c ^ $./ ( ^ #.O.%X@X      - s - X o * t u e e e y 6 A rXdXsXsXsXsXsXdX",
"jXsXsXsXdX8XtXdXdXdXtXsXtXdXdXsXsXsXsXsXsXsXlXOX  { c Q ( O.O.O.,.u.t.j >XlXdX5X^.g       s * o * f f r r r e 9 0XdXsXsXsXsXsXsX",
"dXsXdXsXdXdXdXtXdXsXdXtXdXtXdXsXdXsXsXsXsXsXdX|.  } ^ ..z ^ ..@.d.#.G /.dXsXsXjXjXwX5X>Xz.  - s -     C f f u  .wXdXsXsXsXdXsXjX",
"jXsXsXdXsXdXtXdXtXjXtXdXtXdXtXdXsXdXsXsXsXuXlX$Xj v O...i / ..@.i.t.G 1XlXuXsXsXsXdXdXlXwXz.      ^.`.+ < 9 < :XdXsXsXsXdXsXdXsX",
"sXsXdXsXdXtXdXtXjXtXjXtXjXtXdXtXdXsXdXsXsXsXdX6XF Q u...i ....$.w.l ).jXtXdXsXsXdXsXdXtXjXsXwX,X7XdXsX;X#Xf.r.tXdXsXsXsXsXdXtXlX",
"lXsXsXdXtXdXtXjXtXjXtXjXtXjXtXdXsXdXsXsXdXtXlXOXO #.p.^ c | | u.J W.tXsXdXsXsXsXsXdXtXdXtXdXsXlXsXjXtXjXjX5X2XlXtXdXsXsXdXsXdXtX",
"sXsXdXtXdXtXjXtXjXtXjXtXjXtXdXtXdXsXdXsXsXsXjX$Xk w.i./ p ^ #.> OXjXsXdXsXdXsXsXdXsXdXtXjXtXjXtXjXtXjXtXdXsXjXtXdXsXsXsXsXdXtXlX",
"lXsXsXdXtXjXtXjXtXjXtXjXtXjXtXdXtXdXsXsXsXdXqXo.@.Q u.@.i { j |.lXtXdXtXdXsXsXsXsXdXtXdXtXjXtXjXtXjXtXjXtXdXtXdXsXdXsXsXdXsXdXtX",
"sXsXdXtXdXtXjXtXjXtXjXtXjXtXjXtXdXpXdXsXsXdXT.o.| Q O.$.^ k g.dXtXdXtXdXtXdXsXsXdXsXdXtXjXtXjXtXjXtXjXtXjXtXdXtXdXsXsXsXsXdXtXlX",
"lXsXsXdXtXjXtXjXtXjXtXjXtXjXtXdXtXdXsXsXlX$XE w.i.O.( $.O.> 2XsXdXtXdXtXdXsXsXsXsXdXtXdXtXjXtXjXtXjXtXjXtXjXtXdXsXdXsXsXdXsXdXtX",
"sXsXdXtXdXtXjXtXjXtXjXtXjXtXdXtXdXsXsXdXtXT.3.$.2.$./ $.O.~ 8XlXtXjXtXdXsXdXsXsXdXsXdXtXjXtXjXtXjXtXjXtXjXtXdXtXdXsXsXsXsXdXtXlX",
"lXsXsXdXtXgXtXjXtXjXtXjXtXjXtXdXpXdXsXjX5XF u...2.O./ O.[ ..tXtXjXtXdXtXdXsXsXdXsXdXtXdXtXjXtXjXtXjXtXjXtXdXtXdXsXdXsXsXdXsXdXtX",
"sXsXdXsXdXtXgXtXjXtXjXtXjXtXdXtXdXsXsXjX;XJ } O.2.Q ../ #.; ,XlXtXjXtXdXsXdXsXsXdXsXdXtXdXtXjXtXjXtXjXtXdXtXdXsXdXsXsXsXsXdXtXlX",
"jXsXsXdXtXdXtXdXtXdXtXdXtXdXtXdXsXdXsXjX1XJ t.i./ / O.Q u.8 `.dXdXpXdXsXdXsXsXsXsXdXsXdXtXdXtXdXtXdXtXdXtXdXtXdXsXsXsXsXdXsXdXsX",
"sXsXdXsXdXsXdXtXdXtXdXtXdXtXdXsXdXsXsXlXOXj p.../ <.Q O.<.| O 5XjXsXtXsXsXdXsXsXsXsXdXsXdXtXdXtXdXtXdXtXdXsXdXsXdXsXsXsXsXdXtXjX",
"jXsXsXdXsXdXsXdXsXdXsXdXsXdXsXdXsXsXjX1X3.@./ O.<.^ ( <.@...K l.sXdXjXjXjXsXsXsXsXdXsXdXsXdXsXdXsXdXsXdXsXdXsXdXsXsXsXsXsXsXdXsX",
"dXsXsXsXdXsXdXsXdXsXdXsXdXsXdXsXsXdXtXc.o.<.....c / u.O.@.@.} 8 W.).|.|.8XjXsXsXsXsXsXsXdXsXdXsXdXsXdXsXdXsXdXsXsXsXsXsXsXsXsXjX",
"dXsXsXsXsXsXsXsXsXsXsXsXsXsXsXsXsXdXrX~ j $...( $.i.i.@...c / i.o.1.E J 2.'.tXdXsXsXsXsXsXsXsXsXsXsXsXsXsXsXsXsXsXsXsXsXsXsXsXdX",
"dXsXsXsXsXsXsXsXsXdXsXdXsXsXsXsXsXdXlX,Xw.$.@.@.^ c c Q Q z / i.i.t.#.d.x.G OXjXsXsXsXsXsXsXsXdXsXdXsXsXsXsXsXsXsXsXsXsXsXsXsXdX",
"dXsXsXsXdXsXdXsXdXsXdXsXdXsXjXsXjXtX8X<Xc.$.$./ c / O.../ p O.O.( ..<.#.w.o.|.lXsXsXdXsXdXsXdXsXdXsXdXsXdXsXdXsXsXsXsXsXsXdXsXjX",
"jXsXsXdXsXdXsXdXtXdXiXdXtXdX5XtX;Xc.o.P 3.2.#.8 Q w.....#.( c <.i.p.#.^ ..O.c.4XjXsXtXsXtXdXiXdXtXdXtXdXpXdXpXdXsXsXsXsXsXsXdXsX",
"sXsXdXsXdXtXdXtXdXtXdXsXlX8XF g.3.,.p.t.t.s.D q.c   K t.s.d.O.z | l h / > Q K x.7XjXlXdXlXtXdXtXdXtXdXtXdXtXdXsXdXsXsXsXsXsXtXjX",
"jXsXsXdXtXdXtXdXtXlXdXtXwXsX).k p.2.K O.X.> z.uX8XXXk.; K u.x.u.6 j.1XwX<X{ <.$.s.+X&X$X$XdXtXdXtXjXtXjXtXjXsXdXsXdXdXsXdXsXdXpX",
"sXsXdXtXdXtXjXtXjX1X|.w.l.w.O.K   ..l.; ;   5XlXdXsX7X1Xk.2.x.c.k 5XlXdXlX1Xj , 8 . : K 8 $XlXtXjXtXjXtXtXwXtXwXwXwXwXwXwXwXwXtX",
"lXsXsXdXtXjXtXjXtX%XXXtXwX_.{ l.OXwXsX1X|.OXdXjXwXo.p.|.).2.p.p.F #XlXtXsXdX5X#X#X>X7XtX#Xl.<XjXtXjXtXtX5X8X8X8X8X5X5X8X8X5X8X5X",
"sXsXdXtXdXtXjXtXjXsXlXtXlXsXtXtXlXsXdXjXjXjXwXtXh.h ~ O   : , x   XXdXdXsXsXjXjXlXjXjXsXjX_.t.tXjXtXjXtX8X8X8X8X8X8XwXtXwXwXtXwX",
"lXsXsXdXtXjXtXjXtXjXtXjXtXjXsXjXtXdXsXsXsXtX;X/.E.%XrX5X>X_.^.l.E.8XjXtXdXsXsXsXtXsXtXjX,X%XwXjXtXjXtXsX8X8X8X8X8X8XwXtXtXtXtXtX",
"sXsXdXtXjXtXjXtXjXtXjXtXjXtXdXtXdXsXdXsXsXdXsXjXsXlXsXlXsXlXtXjXtXlXtXdXtXdXsXsXdXsXdXtXjXdXlXtXjXtXjXtXdXtXdXtXsXtXtXtXtXsXtXjX"
};
