/* XPM */
static char *be3ba207be9145e0fbdae5d86acf7ec0gqh36VPFZwgxkISp[] = {
/* columns rows colors chars-per-pixel */
"32 32 10 1 ",
"  c #423934",
". c #5B4F44",
"X c #796755",
"o c #9CDB43",
"O c #D6F265",
"+ c #40AE9E",
"@ c #249FDE",
"# c #20D6C7",
"$ c #21D6C7",
"% c #A6FCDB",
/* pixels */
"oOXooOoooooOoOOo  OO.OOOo .OoOOo",
"Oo o Oo  %oOOOO   O  %OO   OoXoO",
"O%%%%%o%%@@OO%%%%%%%%@%%%%%O .XO",
"+@@@@@@@@++@@@@@@@@@@+@@@@@%    ",
"$++++++++$$++++++++++$+++++@%% .",
"$$$$$$$$$$$$$$$$$$$$$$$$$$+@% .o",
"$$$$$$%$$%%%$%$$$$$$$$$$$$+@% oO",
"$$$$$$$$$$$$$$$$$$$$$$$$$$+@% oO",
"$$$$$$$$$$$$$$$$$$$$$$$$$$+@%   ",
"$$$$$$$$$$$$$$$$$$@$$@@@$$$+@%  ",
"$$$$$$$$$$$$$$$$$$$$$$$$$$+@%  o",
"$$$$$$$$$$$$$$$$$$$$$$$$$$+@% oO",
"$$$$$$$$$$$$$$$$$$$$$$$$$$+@% oo",
"$$$$$$$$$$$$$$$$$$$$$$$$$$+@%  O",
"$$$$$$$$$$$$$$$$$$$$$$$$$$+@%  o",
"$$$$$$$$$$$$$$$$$$$$$$$$$$$+@%  ",
"$%$%%$$$$$$$$$$$$%$$%%$$$$+@%  .",
"$$$$$$$$$$$$$$$$$$$$$$$$$$+@% oo",
"$$$$$$$$$$$$$$$$$$$$$$$$$$+@%ooo",
"$$$$$$$$$$$$$$$$$$$$$$$$$$+@% .O",
"$$$$$$$$$$$$$$$$$$$$$$$$$$+@% .O",
"$$$$$$$$$$$$$$$$$$$$$$$$$$+@% . ",
"$$$$$$$$$$$$$$$$$$$$$$$$$$+@% Oo",
"$$$$$$$$$$$$$$$$$$$$$$$$$$+@% oO",
"$$$$@$$$@@@$$$$$$$$$$$$$$$+@% .o",
"$$$$$$$$$$$$$$$$$$$$$$$$$$+@%   ",
"$$$$$$$$$$$$$$$$$$$$$$$$$$$+@%oo",
"$$$$$$$$$$$$$$$$$$$$$$$$$$+@oooo",
"$$$$$$$$$$$$$$$$$$$$$$$$%$@%%OOo",
"$$$$$$$$$$$$$$$$$$$$$$$$$$+@% oO",
"$$$$$$$$$$$$$$$$$$$$$$$$$$+@%   ",
"$$$$$$$$$$$$$$$$$$$$$$$$$$$+@% O"
};
