/* XPM */
static char *bacf116107f44bc5b2ff4eb3db700170AqfGOzIUj5t8QgAa[] = {
/* columns rows colors chars-per-pixel */
"32 32 7 1 ",
"  c #423935",
". c #9CDB43",
"X c #D7F364",
"o c #41AF9F",
"O c #259EDE",
"+ c #20D6C7",
"@ c #A7FCDB",
/* pixels */
"....X.XX....XX..XX..X.....X.XX..",
"@XX XXX.  X.XX.@ X. X.   .XXXX  ",
"OX@@OXX@@@X.@@@O@X@@@.@@@OXX@@@@",
"oOOOoOOOOOOOOOOoOOOOOOOOOooOOOOO",
"+ooo+oooooooooo+ooooooooo++ooooo",
"++++++++++++++++++++++++++++++++",
"+++++++@++@@+@++++++++++++++++++",
"++++++++++++++++++++++++++++++++",
"++++++++++++++++++++++++++++++++",
"++++++++++++++++++++++OO++OOO+O+",
"++++++++++++++++++++++++++++++++",
"++++++++++++++++++++++++++++++++",
"++++++++++++++++++++++++++++++++",
"++++++++++++++++++++++++++++++++",
"++++++++++++++++++++++++++++++++",
"++++++++++++++++++++++++++++++++",
"+@+@@++++++++++++@++@@++++++++++",
"++++++++++++++++++++++++++++++++",
"++++++++++++++++++++++++++++++++",
"++++++++++++++++++++++++++++++++",
"++++++++++++++++++++++++++++++++",
"++++++++++++++++++++++++++++++++",
"++++++++++++++++++++++++++++++++",
"++++++++++++++++++++++++++++++++",
"++++O+++OOO+++++++++++++++++++++",
"++++++++++++++++++++++++++++++++",
"++++++++++++++++++++++++++++++++",
"++++++++++++++++++++++++++++++++",
"++++++++++++++++++++++++@++@@+++",
"++++++++++++++++++++++++++++++++",
"++++++++++++++++++++++++++++++++",
"++++++++++++++++++++++++++++++++"
};
