/* XPM */
static char *_a3a99a9a67344becf1e68f9263d5769YAePvDhGXtjk3y31[] = {
/* columns rows colors chars-per-pixel */
"32 32 9 1 ",
"  c #433934",
". c #5A4F44",
"X c #796655",
"o c #9CDB42",
"O c #D6F264",
"+ c #40AE9E",
"@ c #249FDF",
"# c #20D6C7",
"$ c #A6FCDB",
/* pixels */
"############################+OOo",
"###############$###########+@$oO",
"###########################+@$ X",
"###############$###########+@$oo",
"#######@#######$###########+@$ o",
"###########################+@$OO",
"#########################$#+@ooo",
"###########################+@$ o",
"#######@###################+@$ o",
"#######@#################$##+@$o",
"#######@#################$##+@oo",
"#########################$#+@OOO",
"###########################+@OOo",
"#########################$#+@$OO",
"###########################+@$OO",
"###########################+@$ o",
"###########################+@$  ",
"###############$###########+@$  ",
"######################@####+@$OO",
"###########################+@$ O",
"###############$###########+@$ .",
"###############$######@#####+@$O",
"######################@####+@$OO",
"######################@####+@$OO",
"###$#######################+@$ o",
"###########################+@$  ",
"#++@+#++++++++++#+++++#+++++@$ .",
"+@@$@+@@@@@@@@@@+@@@@@+@@@@@$OOO",
"@$$$o@$$$$$$$$$$@$$$$$@$$$$$  oo",
"$  Oo$       o  $     $    $ .XO",
"  oOoo .oO...oo    oo   oo.  XoO",
"O Oooo oOo OOoo. oOoOo  OOo. OOo"
};
