/* XPM */
static char *_778f74dab7d4c979c7e26f608216bbbkpf7dJbzLc14nEOv[] = {
/* columns rows colors chars-per-pixel */
"32 32 9 1 ",
"  c #423834",
". c #5B4E44",
"X c #796655",
"o c #9CDB42",
"O c #D6F264",
"+ c #40AE9F",
"@ c #259FDE",
"# c #20D6C7",
"$ c #A7FCDB",
/* pixels */
"O $@+###########################",
"   $@+##########################",
"Oo $@+##########################",
"oOO$$@#$########################",
"oooo@+##########################",
"oo$@+###########################",
"   $@+##########################",
"o. $@+###############@@@###@####",
"Oo $@+##########################",
"oO $@+##########################",
" . $@+##########################",
"O. $@+##########################",
"O. $@+##########################",
"ooo$@+##########################",
"oo $@+##########################",
".  $@+####$$##$############$$#$#",
"  $@+###########################",
"o  $@+##########################",
"O  $@+##########################",
"oo $@+##########################",
"Oo $@+##########################",
"o  $@+##########################",
"  $@+###@@@##@##################",
"   $@+##########################",
"Oo $@+##########################",
"Oo $@+############$#$$$##$######",
"o. $@+##########################",
". $$@+++++#++++++++++##++++++++#",
"    $@@@@@+@@@@@@@@@@++@@@@@@@@+",
"OX. O$$$$$@$$$$$$$$OO@@$$o$$$$$O",
"OoXoO   OO$  O   OOOOo$  oO o oO",
"oOOoO. oOOO.OO  oOOoOoooooOooXOo"
};
