/* XPM */
static char *be0c6197538a43fbb7d1232582a3c661kOmdZ9yRWNCGRf2A[] = {
/* columns rows colors chars-per-pixel */
"32 32 10 1 ",
"  c #423834",
". c #5A4E44",
"X c #796655",
"o c #9DDB43",
"O c #D6F264",
"+ c #41AE9E",
"@ c #249EDF",
"# c #20D7C6",
"$ c #20D6C7",
"% c #A6FCDA",
/* pixels */
"oOO .oOO  oOoOo .ooOO oOo oooO O",
"OoX  .oo   oo    oo...Oo. ooOo  ",
"OX. %    %     %  o       %oO  %",
"oo  %%%%%@%%%%%@%%%%%%%%%%@o%%%@",
"OOO%@@@@@+@@@@@+@@@@@@@@@@+@%@@+",
". %@+++++#+++++#++++++++++#+@++#",
"  %@+###########################",
"o %@+#######################%###",
"OO%@+####@######################",
"OO%@+####@######################",
"O%@+#####@######%###############",
". %@+###########%###############",
"O %@+###########################",
"OO%@+####@######################",
"  %@+###########%###############",
"  %@+###########################",
"o %@+###########################",
"OO%@+###########################",
"OO%@+#%#########################",
"oOO@+###########################",
"OOO@+#%#########################",
"oo@+##%#################@#######",
"o%@+##%#################@#######",
"o %@+###################@#######",
"o %@+###########################",
"ooo@+#%#########################",
"OO%@+###########################",
"o %@+###########%#######@#######",
"oo%@+###########%###############",
"X %@+###########################",
"Oo%@+###########%###############",
"oOO+############################"
};
