/* XPM */
static char *_e4630ef82d041378e9d5e1e52033ebdQDzZcuyABO33MhCp[] = {
/* columns rows colors chars-per-pixel */
"32 32 10 1 ",
"  c #423835",
". c #5B4F44",
"X c #786755",
"o c #A08663",
"O c #9CDB42",
"+ c #D6F264",
"@ c #40AE9E",
"# c #259FDE",
"$ c #20D6C7",
"% c #A6FCDB",
/* pixels */
"$$$$$$$$$$$$$$$$$$$$$$$$$$@#%  +",
"$$$$$$$$$$$$$$$$$$$$$$$$$$@#% . ",
"$$$$$$$$$$$$$$$$$$$$$$$$$$@#% O+",
"$$$%%$$%$$$$$$$$$$$$$$$$$$@#%++O",
"$$$$$$$$$$$$$$$$$$$$$$$$$$@#%OOO",
"$$$$$$$$$$$$$$$$$$$$$$$$$$@#% OO",
"$$$$$$$$$$$$$$$$$$$$$$$$$$$@#%  ",
"$$$$$$$$$$$$$$$$$$$$$###$$@#%  O",
"$$$$$$$$$$$$$$$$$$$$$$$$$$@#% O+",
"$$$$$$$$$$$$$$$$$$$$$$$$$$@#% +O",
"$$$$$$$$$$$$$$$$$$$$$$$$$$@#% .o",
"$$$$$$$$$$$$$$$$$$$$$$$$$$@#% . ",
"$$$$$$$$$$$$$$$$$$$$$$$$$$@#% .+",
"$$$$$$$$$$$$$$$$$$$$$$$$$$@#%OOO",
"$$$$$$$$$$$$$$$$$$$$$$$$$$@#% OO",
"$$$$$$$$$$%%$$%$$$$$$$$$$$#%%%  ",
"$$$$$$$$$$$$$$$$$$$$$$$$$$@#%   ",
"$$$$$$$$$$$$$$$$$$$$$$$$$$@#% .O",
"$$$$$$$$$$$$$$$$$$$$$$$$$$@#% .+",
"$$$$$$$$$$$$$$$$$$$$$$$$$$@#% OO",
"$$$$$$$$$$$$$$$$$$$$$$$$$$@#% O+",
"$$$$$$$$$$$$$$$$$$$$$$$$$$$@#% O",
"$#$###$$##$$$$$$$$$$$$$$$$@#%   ",
"$$$$$$$$$$$$$$$$$$$$$$$$$$@#%  X",
"$$$$$$$$$$$$$$$$$$$$$$$$$$@#% O+",
"$$$$$$$$$$$$$$$$$$$$$$$$$$@#% O+",
"$$$$$$$$$$$$$$$$$$%$%%%$$$@#%  O",
"$$$$$$$$$$$$$$$$$$$$$$$$$$@#% . ",
"$$$$$$$$$$$$$$$$$$$$$$$$$$@#% .X",
"$$$$$$$$$$$$$$$$$$$$$$$$$$@#% .+",
"$$$$$$$$$$$$$$$$$$$$$$$$$$@#% O+",
"$$$$$$$$$$$$$$$$$$$$$$$$$$$@#%+O"
};
