/* XPM */
static char *aa2690b95cbb45afa847663c764fdf70HeNGhGyAclQGJr78[] = {
/* columns rows colors chars-per-pixel */
"32 32 7 1 ",
"  c #423935",
". c #9CDB43",
"X c #D6F264",
"o c #40AE9F",
"O c #249FDE",
"+ c #20D6C7",
"@ c #A7FDDB",
/* pixels */
"++++++++++++++++++++++++++++++++",
"++++++++++++++++++++++++++++++++",
"++++++++++++++++++++++++++++++++",
"+++@@++@++++++++++++++++++++++++",
"++++++++++++++++++++++++++++++++",
"++++++++++++++++++++++++++++++++",
"++++++++++++++++++++++++++++++++",
"+++++++++++++++++++++OOO+++O++++",
"++++++++++++++++++++++++++++++++",
"++++++++++++++++++++++++++++++++",
"++++++++++++++++++++++++++++++++",
"++++++++++++++++++++++++++++++++",
"++++++++++++++++++++++++++++++++",
"++++++++++++++++++++++++++++++++",
"++++++++++++++++++++++++++++++++",
"++++++++++@@++@++++++++++++@@+@+",
"++++++++++++++++++++++++++++++++",
"++++++++++++++++++++++++++++++++",
"++++++++++++++++++++++++++++++++",
"++++++++++++++++++++++++++++++++",
"++++++++++++++++++++++++++++++++",
"++++++++++++++++++++++++++++++++",
"+O+OOO++OO++++++++++++++++++++++",
"++++++++++++++++++++++++++++++++",
"++++++++++++++++++++++++++++++++",
"++++++++++++++++++@+@@++@+++++++",
"++++++++++++++++++++++++++++++++",
"ooooo++ooooooooo+oooooooooo+ooo+",
"OOOOOooOOOOOOOOOoOOOOOOOOOOoOOOo",
"@@@@XXO@@@.@@@X@O@@@.X@@@XXO@@XO",
"  XXXX.   .X .X @.XX.X  .XXX XX@",
"..XX.X.....X..XX..XX....XX.X...."
};
